<svg xmlns="http://www.w3.org/2000/svg" viewBox="0 0 389.58 95.51"><defs><style>.cls-1{fill:#231f20;}.cls-2{fill:#003d79;}.cls-3{fill:#fff;}</style></defs><g id="Layer_1" data-name="Layer 1"><path class="cls-1" d="M160.41,71.53a8.25,8.25,0,0,1,8.38-8.6,7.51,7.51,0,0,1,6.1,2.94l-1.19.77a6.09,6.09,0,0,0-4.91-2.41c-3.86,0-6.88,3-6.88,7.3s3,7.3,6.88,7.3a6.07,6.07,0,0,0,4.91-2.42l1.19.75a7.47,7.47,0,0,1-6.1,3A8.25,8.25,0,0,1,160.41,71.53Z"/><path class="cls-1" d="M177,73.8c0-3.52,2.27-6.31,5.78-6.31s5.81,2.79,5.81,6.31-2.25,6.33-5.81,6.33S177,77.31,177,73.8Zm10.19,0c0-2.67-1.57-5.14-4.41-5.14s-4.39,2.47-4.39,5.14S180,79,182.82,79,187.23,76.49,187.23,73.8Z"/><path class="cls-1" d="M200.09,71.7c0-2.34-1.17-3-2.91-3a5.26,5.26,0,0,0-3.92,2.07v9.1H192v-12h1.29v1.82a6.1,6.1,0,0,1,4.34-2.12c2.44,0,3.79,1.2,3.79,3.91v8.43h-1.3Z"/><path class="cls-1" d="M213.55,71.7c0-2.34-1.17-3-2.92-3a5.24,5.24,0,0,0-3.91,2.07v9.1h-1.29v-12h1.29v1.82a6.08,6.08,0,0,1,4.34-2.12c2.44,0,3.78,1.2,3.78,3.91v8.43h-1.29Z"/><path class="cls-1" d="M224,67.49c3.66,0,5.68,2.92,5.68,6.38v.35H219.61A4.67,4.67,0,0,0,224.29,79a5.34,5.34,0,0,0,4-1.66l.68.84a6.21,6.21,0,0,1-4.71,1.95c-3.52,0-6-2.62-6-6.33C218.19,70.31,220.65,67.49,224,67.49Zm-4.38,5.71h8.74A4.41,4.41,0,0,0,224,68.61C221.13,68.61,219.71,71.11,219.61,73.2Z"/><path class="cls-1" d="M238.17,67.49a5,5,0,0,1,4.26,2.05l-.89.79a3.86,3.86,0,0,0-3.29-1.67c-2.82,0-4.54,2.25-4.54,5.14S235.43,79,238.25,79a3.86,3.86,0,0,0,3.29-1.7l.89.8a5,5,0,0,1-4.26,2.07c-3.54,0-5.85-2.82-5.85-6.33S234.63,67.49,238.17,67.49Z"/><path class="cls-1" d="M245.58,77.51V69h-2V67.79h2V64.5h1.32v3.29h2.44V69H246.9v8.35c0,1,.39,1.65,1.24,1.65a1.89,1.89,0,0,0,1.35-.58l.5,1a2.72,2.72,0,0,1-2.05.75C246.35,80.13,245.58,79.15,245.58,77.51Z"/><path class="cls-1" d="M257.29,67.49c3.66,0,5.68,2.92,5.68,6.38v.35H252.9A4.68,4.68,0,0,0,257.59,79a5.37,5.37,0,0,0,4-1.66l.67.84a6.18,6.18,0,0,1-4.71,1.95c-3.51,0-6-2.62-6-6.33C251.48,70.31,254,67.49,257.29,67.49ZM252.9,73.2h8.75a4.42,4.42,0,0,0-4.39-4.59C254.42,68.61,253,71.11,252.9,73.2Z"/><path class="cls-1" d="M275.18,77.91A5.14,5.14,0,0,1,271,80.13c-3.19,0-5.39-2.45-5.39-6.31s2.2-6.33,5.39-6.33a5.13,5.13,0,0,1,4.18,2.24V63.21h1.32V79.83h-1.32Zm0-7a4.8,4.8,0,0,0-4-2.2c-2.67,0-4.21,2.25-4.21,5.16S268.55,79,271.22,79a4.83,4.83,0,0,0,4-2.15Z"/><path class="cls-1" d="M280.17,63.21h7.77a5.18,5.18,0,0,1,5.58,5.35c0,2.89-2,5.31-5.58,5.31h-4.23v6h-3.54Zm7.3,3h-3.76v4.58h3.76a2.29,2.29,0,1,0,0-4.58Z"/><path class="cls-1" d="M302.37,78.58a5,5,0,0,1-3.81,1.55,4,4,0,0,1-4.19-4c0-2.82,2.27-3.84,4.19-3.84a4.85,4.85,0,0,1,3.81,1.47V72.1c0-1.22-1-2-2.64-2a5.09,5.09,0,0,0-3.51,1.42L295,69.39a7.89,7.89,0,0,1,5.26-1.9c2.74,0,5.26,1.1,5.26,4.56v7.78h-3.17Zm0-3.14a3.15,3.15,0,0,0-2.54-1c-1.24,0-2.27.65-2.27,1.82s1,1.77,2.27,1.77a3.18,3.18,0,0,0,2.54-1Z"/><path class="cls-1" d="M308.68,67.79h3.16v1.65a5.14,5.14,0,0,1,3.84-1.92v3.09a3.93,3.93,0,0,0-.87-.1,4.06,4.06,0,0,0-3,1.37v8h-3.16Z"/><path class="cls-1" d="M318.27,76.84V70.56h-2V67.79h2V64.5h3.19v3.29h2.45v2.77h-2.45V76c0,.75.4,1.32,1.1,1.32a1.73,1.73,0,0,0,1.1-.35l.67,2.39a3.86,3.86,0,0,1-2.64.78C319.47,80.13,318.27,79,318.27,76.84Z"/><path class="cls-1" d="M334.2,72.55A2,2,0,0,0,332,70.31a3.42,3.42,0,0,0-2.74,1.42v8.1h-3.16v-12h3.16v1.57a5.51,5.51,0,0,1,4.21-1.87c2.64,0,3.91,1.5,3.91,3.84v8.5H334.2Z"/><path class="cls-1" d="M346,67.49c3.59,0,6,2.69,6,6.63v.7h-8.94a3.24,3.24,0,0,0,3.46,2.79,4.94,4.94,0,0,0,3.22-1.2l1.39,2a7.53,7.53,0,0,1-5,1.67,6.32,6.32,0,1,1-.2-12.64Zm-3,5.19h5.93A2.79,2.79,0,0,0,346,70,2.89,2.89,0,0,0,343,72.68Z"/><path class="cls-1" d="M354.29,67.79h3.16v1.65a5.14,5.14,0,0,1,3.84-1.92v3.09a3.93,3.93,0,0,0-.87-.1,4.06,4.06,0,0,0-3,1.37v8h-3.16Z"/></g><g id="Blue_Black" data-name="Blue/Black"><polygon class="cls-1" points="364.48 37.2 363.88 37.2 363.88 31.79 361.88 31.79 361.88 31.23 366.48 31.23 366.48 31.79 364.48 31.79 364.48 37.2 364.48 37.2"/><polygon class="cls-1" points="370.35 36.09 372.36 31.23 373.29 31.23 373.29 37.2 372.68 37.2 372.68 32.04 372.67 32.04 370.51 37.2 370.19 37.2 368.03 32.04 368.02 32.04 368.02 37.2 367.41 37.2 367.41 31.23 368.33 31.23 370.35 36.09 370.35 36.09"/><path class="cls-1" d="M84,42.52v-.06a10.48,10.48,0,0,1,10.68-10.7,10.8,10.8,0,0,1,8.1,3.22l-2.34,2.69a8.25,8.25,0,0,0-5.79-2.57c-3.93,0-6.83,3.25-6.83,7.3v.06c0,4,2.87,7.34,6.83,7.34,2.54,0,4.17-1,5.94-2.66l2.34,2.36a10.69,10.69,0,0,1-8.4,3.67A10.41,10.41,0,0,1,84,42.52Z"/><path class="cls-1" d="M115.19,47.2V46.13a10,10,0,0,0-3.55-.62c-2.31,0-3.67,1-3.67,2.6v.06c0,1.51,1.33,2.37,3,2.37,2.36,0,4.17-1.36,4.17-3.34Zm-10.71,1.12v-.06c0-3.37,2.64-5,6.45-5a13.18,13.18,0,0,1,4.2.65V43.5c0-2.22-1.36-3.4-3.87-3.4a10.9,10.9,0,0,0-4.47,1l-1-2.81A13.47,13.47,0,0,1,111.73,37a7,7,0,0,1,5.17,1.75,6.45,6.45,0,0,1,1.69,4.82v9.25H115.1v-2A6.36,6.36,0,0,1,110,53.14c-2.92,0-5.53-1.69-5.53-4.82Z"/><path class="cls-1" d="M122.11,37.2h3.57v2.37a5.61,5.61,0,0,1,4.77-2.69,5,5,0,0,1,4.67,2.75,6.27,6.27,0,0,1,5.26-2.75c3.4,0,5.47,2.15,5.47,6v10h-3.58V43.94c0-2.48-1.15-3.81-3.16-3.81s-3.34,1.36-3.34,3.87v8.81h-3.58v-8.9c0-2.42-1.18-3.78-3.16-3.78s-3.35,1.48-3.35,3.87v8.81h-3.57V37.2Z"/><path class="cls-1" d="M161.94,45V45c0-3-2-5-4.47-5a4.71,4.71,0,0,0-4.55,5V45a4.7,4.7,0,0,0,4.55,5c2.46,0,4.47-1.92,4.47-5ZM153,50.39v2.42h-3.58V31.23H153V39.8a6.25,6.25,0,0,1,5.32-2.92c3.67,0,7.24,2.89,7.24,8.1V45c0,5.17-3.54,8.1-7.24,8.1A6.37,6.37,0,0,1,153,50.39Z"/><path class="cls-1" d="M168.71,37.2h3.58V52.81h-3.58V37.2Zm-.15-5.79h3.84v3.4h-3.84v-3.4Z"/><path class="cls-1" d="M176,47.14V37.2h3.58v8.87c0,2.43,1.21,3.79,3.34,3.79s3.52-1.42,3.52-3.85V37.2h3.61V52.81h-3.61V50.39a5.63,5.63,0,0,1-4.88,2.75c-3.52,0-5.56-2.37-5.56-6Z"/><path class="cls-1" d="M193.75,37.2h3.58v2.37a5.61,5.61,0,0,1,4.76-2.69,4.94,4.94,0,0,1,4.67,2.75A6.29,6.29,0,0,1,212,36.88c3.4,0,5.47,2.15,5.47,6v10h-3.58V43.94c0-2.48-1.15-3.81-3.16-3.81s-3.35,1.36-3.35,3.87v8.81h-3.57v-8.9c0-2.42-1.19-3.78-3.17-3.78s-3.34,1.48-3.34,3.87v8.81h-3.58V37.2Z"/><polygon class="cls-1" points="229.59 32.11 232.96 32.11 244.05 46.43 244.05 32.11 247.63 32.11 247.63 52.81 244.58 52.81 233.17 38.09 233.17 52.81 229.59 52.81 229.59 32.11 229.59 32.11"/><path class="cls-1" d="M262.47,43.91c-.23-2.3-1.59-4.11-4-4.11-2.19,0-3.73,1.69-4,4.11Zm-11.56,1.16V45c0-4.47,3.16-8.13,7.63-8.13,5,0,7.48,3.9,7.48,8.39,0,.33,0,.65-.06,1H254.49a4.36,4.36,0,0,0,4.49,4,5.67,5.67,0,0,0,4.23-1.86l2.1,1.86a7.89,7.89,0,0,1-6.39,2.93,7.79,7.79,0,0,1-8-8.1Z"/><path class="cls-1" d="M269.6,48.5V40.28h-2V37.2h2V32.91h3.58V37.2h4.19v3.08h-4.19v7.65a1.71,1.71,0,0,0,1.92,2,4.79,4.79,0,0,0,2.22-.54v2.93a6.25,6.25,0,0,1-3.23.8c-2.63,0-4.49-1.15-4.49-4.58Z"/><polygon class="cls-1" points="278.94 37.2 282.61 37.2 285.74 47.9 289.2 37.14 292.28 37.14 295.74 47.9 298.93 37.2 302.54 37.2 297.42 52.93 294.2 52.93 290.71 42.26 287.19 52.93 284 52.93 278.94 37.2 278.94 37.2"/><path class="cls-1" d="M316.4,45.09V45a4.83,4.83,0,0,0-4.79-5,4.69,4.69,0,0,0-4.7,5V45a4.81,4.81,0,0,0,4.76,5,4.68,4.68,0,0,0,4.73-4.94Zm-13.07,0V45A8.33,8.33,0,0,1,320,45V45a8.17,8.17,0,0,1-8.37,8.13,8.08,8.08,0,0,1-8.28-8.08Z"/><path class="cls-1" d="M322.85,37.2h3.58v3.52c1-2.34,2.78-3.93,5.53-3.82v3.79h-.21c-3.13,0-5.32,2-5.32,6.18v5.94h-3.58V37.2Z"/><polygon class="cls-1" points="334.3 31.23 337.87 31.23 337.87 44.12 344.35 37.2 348.69 37.2 342.49 43.56 348.9 52.81 344.7 52.81 340.09 46.04 337.87 48.35 337.87 52.81 334.3 52.81 334.3 31.23 334.3 31.23"/><path class="cls-1" d="M349.46,50.77l1.6-2.42a8.83,8.83,0,0,0,5.12,1.92c1.53,0,2.42-.65,2.42-1.68v-.06c0-1.22-1.65-1.63-3.49-2.19-2.31-.65-4.88-1.6-4.88-4.59v0c0-3,2.46-4.77,5.56-4.77a10.81,10.81,0,0,1,5.74,1.78l-1.42,2.54a9.05,9.05,0,0,0-4.41-1.48c-1.39,0-2.19.65-2.19,1.54v.06c0,1.15,1.69,1.63,3.52,2.22,2.28.71,4.85,1.74,4.85,4.55v.06c0,3.28-2.54,4.91-5.79,4.91a11,11,0,0,1-6.63-2.34Z"/><path class="cls-2" d="M51.8,25a15.51,15.51,0,0,0,13,28.08,26.61,26.61,0,0,0,1.38-28.49A15.5,15.5,0,0,0,51.8,25Z"/><path class="cls-2" d="M30.81,42.53a26.7,26.7,0,0,0,5.33,6.72,25.84,25.84,0,0,1,6.15-38.11A26.5,26.5,0,0,0,33,13.07a26.84,26.84,0,0,0-2.16,29.46Z"/><path class="cls-2" d="M27.87,44.17A30.18,30.18,0,0,1,27,16.42,26.66,26.66,0,0,0,58.74,59.27a29.59,29.59,0,0,1-4.51.35A30.22,30.22,0,0,1,27.87,44.17Z"/><path class="cls-2" d="M48.64,19.49a18.78,18.78,0,0,0-7.22,25.57c.21.38.44.76.68,1.12A18.87,18.87,0,0,1,59.36,19.71a19.17,19.17,0,0,1,3.48.32,27.5,27.5,0,0,0-2.91-2.8,19.06,19.06,0,0,0-2.14-.13,18.76,18.76,0,0,0-9.15,2.39Z"/><path class="cls-2" d="M36.55,43.9a23.74,23.74,0,0,0,2.15,3.16l-.21-.36A22.14,22.14,0,0,1,54.87,13.94a26.78,26.78,0,0,0-6.19-2.19,21.8,21.8,0,0,0-3.49,1.57A22.49,22.49,0,0,0,36.55,43.9Z"/><path class="cls-3" d="M64.76,53.12a15.51,15.51,0,1,1,1.38-28.49,27.34,27.34,0,0,0-3.3-4.6,19.17,19.17,0,0,0-3.48-.32A18.87,18.87,0,0,0,42.1,46.18c-.24-.36-.47-.74-.68-1.12a18.78,18.78,0,0,1,16.37-28,19.06,19.06,0,0,1,2.14.13,26.47,26.47,0,0,0-5.06-3.29A22.14,22.14,0,0,0,38.49,46.7l.21.36a23.74,23.74,0,0,1-2.15-3.16,22.49,22.49,0,0,1,8.64-30.58,21.8,21.8,0,0,1,3.49-1.57A27,27,0,0,0,43,11.13h-.66a25.84,25.84,0,0,0-6.15,38.11A26.82,26.82,0,0,1,33,13.07a26.47,26.47,0,0,0-6,3.35,30.16,30.16,0,0,0,27.23,43.2,29.59,29.59,0,0,0,4.51-.35,26.62,26.62,0,0,0,6-6.15Z"/></g></svg>