<svg id="45a7dcbd-98d9-48ab-80c4-a58865e7fea9" data-name="Layer 1" xmlns="http://www.w3.org/2000/svg" viewBox="0 0 31.73 33.09"><title>contactArtboard 2</title><path d="M27.84,8.55a.58.58,0,0,0-.28-.08A11.68,11.68,0,0,0,16.34,0h-.92A11.68,11.68,0,0,0,4.2,8.48a.58.58,0,0,0-.31.07,8,8,0,0,0,0,13.77.59.59,0,0,0,.31.08l.06,0,.08,0a.59.59,0,0,0,.59-.59V11.67A10.49,10.49,0,0,1,15.42,1.19h.92A10.49,10.49,0,0,1,26.82,11.67V21.81a.59.59,0,0,0,.59.59h.11a.59.59,0,0,0,.31-.08,8,8,0,0,0,0-13.77ZM1.19,15.44A6.79,6.79,0,0,1,3.88,10a11.65,11.65,0,0,0-.13,1.66v9.1A6.79,6.79,0,0,1,1.19,15.44ZM28,20.75V11.67A11.65,11.65,0,0,0,27.88,10,6.83,6.83,0,0,1,28,20.75Z" style="fill:#fff"/><path d="M19.64,4.47a9.36,9.36,0,0,0-3.38-.63h-.74a9.38,9.38,0,0,0-3.38.63.59.59,0,0,0,.43,1.11,8.19,8.19,0,0,1,3-.55h.74a8.2,8.2,0,0,1,3,.55.59.59,0,1,0,.43-1.11Z" style="fill:#fff"/><path d="M16.1,25.58A3.75,3.75,0,0,0,12.59,28,7.42,7.42,0,0,1,8.45,21.4V17a.59.59,0,1,0-1.19,0v4.4a8.61,8.61,0,0,0,5.09,7.85s0,.06,0,.09a3.75,3.75,0,1,0,3.75-3.75Zm0,6.32a2.56,2.56,0,0,1-2.53-2.22,8.56,8.56,0,0,0,2.3.32.59.59,0,1,0,0-1.19,7.39,7.39,0,0,1-2.18-.33A2.56,2.56,0,1,1,16.1,31.9Z" style="fill:#fff"/></svg>