<svg xmlns="http://www.w3.org/2000/svg" width="26" height="28" viewBox="0 0 26 28">
  <g fill="#444" transform="rotate(5 1.133 25.95)">
    <path stroke="#444" d="M20.5498497,10.2749249 C20.5498497,4.6093313 15.9405184,0 10.2749249,0 C4.6093313,0 0,4.6093313 0,10.2749249 C0,15.9405184 4.6093313,20.5498497 10.2749249,20.5498497 C15.9405184,20.5498497 20.5498497,15.9405184 20.5498497,10.2749249 Z M10.2749249,19.7278558 C5.06266098,19.7278558 0.82199399,15.4871888 0.82199399,10.2749249 C0.82199399,5.06266098 5.06266098,0.82199399 10.2749249,0.82199399 C15.4871888,0.82199399 19.7278558,5.06266098 19.7278558,10.2749249 C19.7278558,15.4871888 15.4871888,19.7278558 10.2749249,19.7278558 Z"/>
    <path d="M25.7795236,23.8823958 L19.7666752,17.8694346 C19.2062691,18.5697914 18.5698303,19.2061948 17.8694346,19.7665697 L23.882283,25.7795309 C24.0571583,25.9543965 24.3402685,25.9543965 24.5146965,25.7795309 L25.7795236,24.5147742 C25.9543989,24.3403558 25.9543989,24.0568142 25.7795236,23.8823958 Z"/>
  </g>
</svg>
