<svg id="Layer_1" data-name="Layer 1" xmlns="http://www.w3.org/2000/svg" viewBox="0 0 100 100"><defs><style>.cls-1{fill:#ffffff;}</style></defs><path class="cls-1" d="M58.58,78.54a8.4,8.4,0,0,1-3.3-.68L5.89,56.66a8.39,8.39,0,0,1-4.4-11l11-25.58a8.37,8.37,0,0,1,11-4.39l49.4,21.2a8.38,8.38,0,0,1,4.39,11l-11,25.57A8.36,8.36,0,0,1,58.58,78.54ZM20.17,18.66a4.72,4.72,0,0,0-4.35,2.86L4.85,47.1a4.72,4.72,0,0,0,2.48,6.2L56.72,74.5A4.82,4.82,0,0,0,62.93,72l11-25.57a4.69,4.69,0,0,0,0-3.62,4.74,4.74,0,0,0-2.52-2.59L22,19A4.8,4.8,0,0,0,20.17,18.66Z"/><path class="cls-1" d="M85.06,85a1.83,1.83,0,0,1-1.22-.46L72.25,74.2a1.83,1.83,0,0,1,2.43-2.73l9.74,8.69L94.67,57.65,81.72,56a1.82,1.82,0,0,1-1.58-2,1.8,1.8,0,0,1,2-1.58l15.41,2A1.81,1.81,0,0,1,99,56.91l-12.3,27a1.83,1.83,0,0,1-1.28,1A1.69,1.69,0,0,1,85.06,85Z"/><path class="cls-1" d="M59.94,45.29a1.82,1.82,0,0,1-.72-.15L41.39,37.48a1.82,1.82,0,1,1,1.44-3.35l17.83,7.65a1.83,1.83,0,0,1-.72,3.51Z"/><path class="cls-1" d="M28.24,84.3H10.62a1.83,1.83,0,0,1,0-3.66H27l3-7.18a1.83,1.83,0,1,1,3.36,1.43l-3.52,8.29A1.83,1.83,0,0,1,28.24,84.3Z"/></svg>