<svg xmlns="http://www.w3.org/2000/svg" viewBox="0 0 100 100"><defs><style>.cls-1,.cls-3{opacity:0;}.cls-2{fill:#1e3f78;}.cls-3{fill:#65a4ef;}.cls-4{fill:#fff;}</style></defs><g id="circle-fill_export_layer_at_0_transparency_" data-name="circle-fill [export layer at 0% transparency]" class="cls-1"><circle class="cls-2" cx="50" cy="50" r="49.5"/></g><g id="circle-stroke_export_layer_at_0_transparency_" data-name="circle-stroke [export layer at 0% transparency]" class="cls-1"><path class="cls-3" d="M50,99.5A49.5,49.5,0,1,1,99.5,50,49.56,49.56,0,0,1,50,99.5Zm0-95A45.5,45.5,0,1,0,95.5,50,45.55,45.55,0,0,0,50,4.5Z"/></g><g id="icon"><path class="cls-4" d="M56.94,68.87a6.91,6.91,0,0,1-2.7-.56L17.55,52.56a6.86,6.86,0,0,1-3.6-9l8.15-19a6.85,6.85,0,0,1,9-3.6l36.7,15.74a6.88,6.88,0,0,1,3.6,9l-8.16,19a6.91,6.91,0,0,1-6.31,4.16ZM28.41,24.39a3.07,3.07,0,0,0-1.07.2,2.84,2.84,0,0,0-1.56,1.54h0l-8.16,19a2.88,2.88,0,0,0,1.5,3.77l36.7,15.74a2.86,2.86,0,0,0,3.76-1.5l8.15-19a2.86,2.86,0,0,0-1.5-3.76L29.54,24.62A3,3,0,0,0,28.41,24.39Zm-4.47.95h0Z"/><path class="cls-4" d="M77.2,73.66a2,2,0,0,1-1.33-.51l-8.61-7.67a2,2,0,1,1,2.66-3l6.59,5.87L83.4,53.24l-8.76-1.12a2,2,0,0,1,.5-4l11.45,1.46a2,2,0,0,1,1.57,2.82L79,72.49a2,2,0,0,1-1.41,1.13A1.84,1.84,0,0,1,77.2,73.66Z"/><path class="cls-4" d="M56.77,45.35a2,2,0,0,1-.79-.16L42.74,39.5a2,2,0,0,1,1.57-3.67l13.25,5.68a2,2,0,0,1-.79,3.84Z"/><path class="cls-4" d="M34.35,73.74H21.27a2,2,0,1,1,0-4H33l2.1-4.94a2,2,0,0,1,3.68,1.56l-2.62,6.16A2,2,0,0,1,34.35,73.74Z"/></g></svg>