<svg xmlns="http://www.w3.org/2000/svg" viewBox="0 0 100 100"><defs><style>.cls-1,.cls-3{opacity:0;}.cls-2{fill:#1e3f78;}.cls-3{fill:#65a4ef;}.cls-4{fill:#fff;}</style></defs><g id="circle-fill_export_layer_at_0_transparency_" data-name="circle-fill [export layer at 0% transparency]" class="cls-1"><circle class="cls-2" cx="50" cy="50" r="49.5"/></g><g id="circle-stroke_export_layer_at_0_transparency_" data-name="circle-stroke [export layer at 0% transparency]" class="cls-1"><path class="cls-3" d="M50,99.5A49.5,49.5,0,1,1,99.5,50,49.56,49.56,0,0,1,50,99.5Zm0-95A45.5,45.5,0,1,0,95.5,50,45.55,45.55,0,0,0,50,4.5Z"/></g><g id="icon"><path class="cls-4" d="M49.85,79.51a7.41,7.41,0,1,1,7.41-7.41A7.41,7.41,0,0,1,49.85,79.51Zm0-10.81a3.41,3.41,0,1,0,3.41,3.4A3.41,3.41,0,0,0,49.85,68.7Z"/><path class="cls-4" d="M64.57,62a2,2,0,0,1-1.41-.59,18.85,18.85,0,0,0-26.61,0,2,2,0,1,1-2.83-2.82,22.84,22.84,0,0,1,32.27,0A2,2,0,0,1,64.57,62Z"/><path class="cls-4" d="M74.74,51.82a2,2,0,0,1-1.42-.59,33.23,33.23,0,0,0-46.94,0,2,2,0,0,1-2.83-2.83,37.24,37.24,0,0,1,52.6,0,2,2,0,0,1-1.41,3.42Z"/><path class="cls-4" d="M14.35,41.2a2,2,0,0,1-1.41-3.41,52.26,52.26,0,0,1,73.83,0,2,2,0,0,1-2.83,2.82,48.27,48.27,0,0,0-68.17,0A2,2,0,0,1,14.35,41.2Z"/></g></svg>