<svg xmlns="http://www.w3.org/2000/svg" viewBox="0 0 100 100"><defs><style>.cls-1,.cls-3{opacity:0;}.cls-2{fill:#1e3f78;}.cls-3{fill:#65a4ef;}.cls-4{fill:#fff;}</style></defs><g id="circle-fill_export_layer_at_0_transparency_" data-name="circle-fill [export layer at 0% transparency]" class="cls-1"><circle class="cls-2" cx="50" cy="50" r="49.5"/></g><g id="circle-stroke_export_layer_at_0_transparency_" data-name="circle-stroke [export layer at 0% transparency]" class="cls-1"><path class="cls-3" d="M50,99.5A49.5,49.5,0,1,1,99.5,50,49.56,49.56,0,0,1,50,99.5Zm0-95A45.5,45.5,0,1,0,95.5,50,45.55,45.55,0,0,0,50,4.5Z"/></g><g id="icon"><path class="cls-4" d="M82.29,41.61a1.49,1.49,0,0,0-1.42-1H58.38l-7-21.39a1.5,1.5,0,0,0-2.86,0l-7,21.39H19.13a1.5,1.5,0,0,0-.88,2.71L36.45,56.5l-7,21.39a1.5,1.5,0,0,0,2.3,1.68L50,66.35,68.2,79.57a1.5,1.5,0,0,0,2.3-1.68l-7-21.39,18.2-13.22A1.5,1.5,0,0,0,82.29,41.61Z"/></g></svg>