<svg xmlns="http://www.w3.org/2000/svg" viewBox="0 0 100 100"><defs><style>.cls-1,.cls-3{opacity:0;}.cls-2{fill:#1e3f78;}.cls-3{fill:#65a4ef;}.cls-4{fill:#fff;}</style></defs><g id="circle-fill_export_layer_at_0_transparency_" data-name="circle-fill [export layer at 0% transparency]" class="cls-1"><circle class="cls-2" cx="50" cy="50" r="49.5"/></g><g id="circle-stroke_export_layer_at_0_transparency_" data-name="circle-stroke [export layer at 0% transparency]" class="cls-1"><path class="cls-3" d="M50,99.5A49.5,49.5,0,1,1,99.5,50,49.56,49.56,0,0,1,50,99.5Zm0-95A45.5,45.5,0,1,0,95.5,50,45.55,45.55,0,0,0,50,4.5Z"/></g><g id="icon"><path class="cls-4" d="M71.92,23.76a6.29,6.29,0,0,0-6.28-6.24h0l-31.72.17A6.28,6.28,0,0,0,27.64,24l.18,29.14a6.28,6.28,0,0,0,6.28,6.24h0l13.74-.07V86.48a2,2,0,0,0,4,0V59.29l14-.07A6.3,6.3,0,0,0,72.1,52.9ZM67.44,54.54a2.31,2.31,0,0,1-1.61.68l-31.72.16h0a2.28,2.28,0,0,1-2.28-2.26L31.64,24a2.29,2.29,0,0,1,.66-1.61,2.25,2.25,0,0,1,1.61-.68l31.72-.17h0a2.29,2.29,0,0,1,2.28,2.27h0l.18,29.14A2.29,2.29,0,0,1,67.44,54.54Z"/><path class="cls-4" d="M81.16,49.74a2,2,0,0,1-1.36-.54,13.72,13.72,0,0,1,.13-20.51,2,2,0,0,1,2.69,3,9.73,9.73,0,0,0-.1,14.62,2,2,0,0,1-1.36,3.47Z"/><path class="cls-4" d="M18.84,48.87a2,2,0,0,1-1.36-3.47,9.72,9.72,0,0,0-.1-14.61A2,2,0,0,1,17.25,28a2,2,0,0,1,2.82-.13,13.71,13.71,0,0,1,.13,20.5A2,2,0,0,1,18.84,48.87Z"/></g></svg>