<svg xmlns="http://www.w3.org/2000/svg" viewBox="0 0 100 100"><defs><style>.cls-1,.cls-3{opacity:0;}.cls-2{fill:#1e3f78;}.cls-3{fill:#65a4ef;}.cls-4{fill:#fff;}</style></defs><g id="circle-fill_export_layer_at_0_transparency_" data-name="circle-fill [export layer at 0% transparency]" class="cls-1"><circle class="cls-2" cx="50" cy="50" r="49.5"/></g><g id="circle-stroke_export_layer_at_0_transparency_" data-name="circle-stroke [export layer at 0% transparency]" class="cls-1"><path class="cls-3" d="M50,99.5A49.5,49.5,0,1,1,99.5,50,49.56,49.56,0,0,1,50,99.5Zm0-95A45.5,45.5,0,1,0,95.5,50,45.55,45.55,0,0,0,50,4.5Z"/></g><g id="icon"><path class="cls-4" d="M86.2,37.29a8.66,8.66,0,1,0-1.1,12.2A8.6,8.6,0,0,0,86.2,37.29Zm-3.66,9.13a4.66,4.66,0,1,1-3-8.24l.43,0a4.66,4.66,0,0,1,2.57,8.22Z"/><path class="cls-4" d="M67.22,50.46,53,62.39a8.68,8.68,0,0,0-6.88-1.56L36.57,37.62l.39-.29a8.67,8.67,0,0,0-4.78-15.28,8.66,8.66,0,0,0-7.43,14.18,8.66,8.66,0,0,0,6.66,3.11,9.27,9.27,0,0,0,1.49-.13l9.6,23.3-.22.16A8.66,8.66,0,0,0,47.06,78c.26,0,.53,0,.79,0a8.67,8.67,0,0,0,7.73-12.54L69.8,53.52a2,2,0,1,0-2.58-3.06ZM27.82,33.67A4.67,4.67,0,0,1,31.39,26l.43,0A4.62,4.62,0,0,1,35,27.69a4.66,4.66,0,1,1-7.16,6Zm23,39.23a4.66,4.66,0,0,1-6.57-.59,4.66,4.66,0,0,1,7.16-6h0A4.66,4.66,0,0,1,50.82,72.9Z"/><path class="cls-4" d="M34.35,62.6,29,60.43c0-.15.05-.31.06-.46a8.67,8.67,0,0,0-7.85-9.41,8.66,8.66,0,1,0-1.55,17.26q.39,0,.78,0a8.67,8.67,0,0,0,7.08-3.7l5.3,2.15a2.06,2.06,0,0,0,.76.15,2,2,0,0,0,.75-3.85ZM20,63.83a4.66,4.66,0,0,1,.42-9.3h.42A4.66,4.66,0,1,1,20,63.83Z"/></g></svg>