<svg xmlns="http://www.w3.org/2000/svg" viewBox="0 0 100 100"><defs><style>.cls-1,.cls-3{opacity:0;}.cls-2{fill:#1e3f78;}.cls-3{fill:#65a4ef;}.cls-4{fill:#fff;}</style></defs><g id="circle-fill_export_layer_at_0_transparency_" data-name="circle-fill [export layer at 0% transparency]" class="cls-1"><circle class="cls-2" cx="50" cy="50" r="49.5"/></g><g id="circle-stroke_export_layer_at_0_transparency_" data-name="circle-stroke [export layer at 0% transparency]" class="cls-1"><path class="cls-3" d="M50,99.5A49.5,49.5,0,1,1,99.5,50,49.56,49.56,0,0,1,50,99.5Zm0-95A45.5,45.5,0,1,0,95.5,50,45.55,45.55,0,0,0,50,4.5Z"/></g><g id="icon"><path class="cls-4" d="M50,82.29a1.94,1.94,0,0,1-1.36-.53,3.11,3.11,0,0,1-.31-.29l-28-28a18,18,0,0,1,0-25.38l1.14-1.15a18.05,18.05,0,0,1,25.38,0l3.2,3.2,3.2-3.2a18,18,0,0,1,25.38,0l1.14,1.14h0a18,18,0,0,1,0,25.38l-28,28a2.77,2.77,0,0,1-.25.24A2.13,2.13,0,0,1,50,82.29ZM34.11,25.7a13.94,13.94,0,0,0-9.87,4.06l-1.13,1.13a14,14,0,0,0,0,19.73L50,77.51,76.89,50.62a14,14,0,0,0,0-19.73l-1.14-1.14a14,14,0,0,0-19.73,0l-4.61,4.6a2,2,0,0,1-2.82,0L44,29.75A14,14,0,0,0,34.11,25.7Z"/></g></svg>