<svg xmlns="http://www.w3.org/2000/svg" viewBox="0 0 100 100"><defs><style>.cls-1,.cls-3{opacity:0;}.cls-2{fill:#1e3f78;}.cls-3{fill:#65a4ef;}.cls-4{fill:#fff;}</style></defs><g id="circle-fill_export_layer_at_0_transparency_" data-name="circle-fill [export layer at 0% transparency]" class="cls-1"><circle class="cls-2" cx="50" cy="50" r="49.5"/></g><g id="circle-stroke_export_layer_at_0_transparency_" data-name="circle-stroke [export layer at 0% transparency]" class="cls-1"><path class="cls-3" d="M50,99.5A49.5,49.5,0,1,1,99.5,50,49.56,49.56,0,0,1,50,99.5Zm0-95A45.5,45.5,0,1,0,95.5,50,45.55,45.55,0,0,0,50,4.5Z"/></g><g id="icon"><path class="cls-4" d="M84.41,42.48,50.86,31a11.65,11.65,0,0,0-6.89,0L15.59,42.05a2.9,2.9,0,0,0-2.12,2.79c0,.78.44,2.22,2.89,3l2.29.81a16.75,16.75,0,0,0-.31,2.84A2,2,0,0,0,17,53.38a2,2,0,0,0,1.2,1.83L16.38,69.65s0,.08,0,.12a1.35,1.35,0,0,0,1,1.52l2.91.29h.13a1.34,1.34,0,0,0,1.08-1.48L21,55.28a2,2,0,0,0,.33-3.65,16.32,16.32,0,0,1,.17-1.94l5.87,2.07L25.66,63.52a2,2,0,0,0,2.51,2.22c5.27-1.44,15.45,1.73,18.92,3.07a2,2,0,0,0,.72.14,2,2,0,0,0,1-.24c5.11-2.79,17.92-3,22.42-2.9a2,2,0,0,0,2-2.33l-1.67-10,13.63-5.12a2.9,2.9,0,0,0,2.12-2.79C87.28,44.73,86.87,43.3,84.41,42.48ZM47.7,64.77C45,63.81,36.54,61,30,61.43l1.43-9.83c18.47-8.84,32.94-.24,36.08,1.9l1.37,8.28C64.11,61.79,53.51,62.12,47.7,64.77ZM69.42,50C65.08,47.11,49.2,38.42,29.29,48.2l-9.7-3.43,25.61-10a7.53,7.53,0,0,1,4.41,0L81.1,45.57Z"/></g></svg>