<svg xmlns="http://www.w3.org/2000/svg" viewBox="0 0 100 100"><defs><style>.cls-1,.cls-3{opacity:0;}.cls-2{fill:#1e3f78;}.cls-3{fill:#65a4ef;}.cls-4{fill:#fff;}</style></defs><g id="circle-fill_export_layer_at_0_transparency_" data-name="circle-fill [export layer at 0% transparency]" class="cls-1"><circle class="cls-2" cx="50" cy="50" r="49.5"/></g><g id="circle-stroke_export_layer_at_0_transparency_" data-name="circle-stroke [export layer at 0% transparency]" class="cls-1"><path class="cls-3" d="M50,99.5A49.5,49.5,0,1,1,99.5,50,49.56,49.56,0,0,1,50,99.5Zm0-95A45.5,45.5,0,1,0,95.5,50,45.55,45.55,0,0,0,50,4.5Z"/></g><g id="icon"><path class="cls-4" d="M72,56.43H20.12a2,2,0,0,1-2-2c0-15,14.3-27.18,31.88-27.18S81.88,39.39,81.88,54.33v.14a2,2,0,0,1-2,1.94,2,2,0,0,1-2-2v-.14c0-12.68-12.5-23-27.87-23-14.59,0-26.6,9.33-27.78,21.17H72a2,2,0,1,1,0,4Z"/><path class="cls-4" d="M84.5,66.56a4.21,4.21,0,0,1-4.19,4.21H19.69a4.2,4.2,0,0,1,0-8.4H80.31A4.21,4.21,0,0,1,84.5,66.56Z"/><rect class="cls-4" x="43.23" y="17.23" width="13.53" height="6.75" rx="2.39"/></g></svg>