<svg xmlns="http://www.w3.org/2000/svg" viewBox="0 0 100 100"><defs><style>.cls-1,.cls-3{opacity:0;}.cls-2{fill:#1e3f78;}.cls-3{fill:#65a4ef;}.cls-4{fill:#fff;}</style></defs><g id="circle-fill_export_layer_at_0_transparency_" data-name="circle-fill [export layer at 0% transparency]" class="cls-1"><circle class="cls-2" cx="50" cy="50" r="49.5"/></g><g id="circle-stroke_export_layer_at_0_transparency_" data-name="circle-stroke [export layer at 0% transparency]" class="cls-1"><path class="cls-3" d="M50,99.5A49.5,49.5,0,1,1,99.5,50,49.56,49.56,0,0,1,50,99.5Zm0-95A45.5,45.5,0,1,0,95.5,50,45.55,45.55,0,0,0,50,4.5Z"/></g><g id="icon"><path class="cls-4" d="M56.36,44.71H43.18a8,8,0,0,1-8-8V23.5a8,8,0,0,1,8-8H56.36a8,8,0,0,1,8,8V36.67A8,8,0,0,1,56.36,44.71ZM43.18,19.46a4,4,0,0,0-4,4V36.67a4,4,0,0,0,4,4H56.36a4,4,0,0,0,4-4V23.5a4,4,0,0,0-4-4Z"/><path class="cls-4" d="M53.23,33.94H46.36l-1.13,2.9H42.92l5.56-14h2.63l5.57,14H54.36ZM47,32.07h5.65l-2.84-7.41Z"/><path class="cls-4" d="M39,76.5H25.78a8.05,8.05,0,0,1-8-8V55.28a8.05,8.05,0,0,1,8-8H39a8.05,8.05,0,0,1,8,8V68.46A8.05,8.05,0,0,1,39,76.5ZM25.78,51.24a4,4,0,0,0-4,4V68.46a4,4,0,0,0,4,4H39a4,4,0,0,0,4-4V55.28a4,4,0,0,0-4-4Z"/><path class="cls-4" d="M73.76,76.5H60.58a8.05,8.05,0,0,1-8-8V55.28a8.05,8.05,0,0,1,8-8H73.76a8.05,8.05,0,0,1,8,8V68.46A8.05,8.05,0,0,1,73.76,76.5ZM60.58,51.24a4,4,0,0,0-4,4V68.46a4,4,0,0,0,4,4H73.76a4,4,0,0,0,4-4V55.28a4,4,0,0,0-4-4Z"/><path class="cls-4" d="M27.82,55.12h6.57c2.5,0,4,1.54,4,3.58a3.17,3.17,0,0,1-2.44,3.21,3.46,3.46,0,0,1,2.71,3.44c0,2.21-1.47,3.78-4,3.78H27.82Zm6.17,6a2.05,2.05,0,0,0,.27-4.1H29.92v4.1Zm.11,6.22a2.1,2.1,0,0,0,2.35-2.21,2.13,2.13,0,0,0-2.1-2.17H29.92v4.37Z"/><path class="cls-4" d="M60,62.13a7,7,0,0,1,6.78-7.24h.4a6.35,6.35,0,0,1,5.57,3L71,58.79a4.48,4.48,0,0,0-3.79-2,5.06,5.06,0,0,0-5,5.38,5.07,5.07,0,0,0,5,5.38,4.48,4.48,0,0,0,3.79-2l1.78.94a6.34,6.34,0,0,1-5.57,3A7,7,0,0,1,60,62.53Z"/></g></svg>