<svg xmlns="http://www.w3.org/2000/svg" viewBox="0 0 100 100"><defs><style>.cls-1,.cls-3{opacity:0;}.cls-2{fill:#1e3f78;}.cls-3{fill:#65a4ef;}.cls-4{fill:#fff;}</style></defs><g id="circle-fill_export_layer_at_0_transparency_" data-name="circle-fill [export layer at 0% transparency]" class="cls-1"><circle class="cls-2" cx="50" cy="50" r="49.5"/></g><g id="circle-stroke_export_layer_at_0_transparency_" data-name="circle-stroke [export layer at 0% transparency]" class="cls-1"><path class="cls-3" d="M50,99.5A49.5,49.5,0,1,1,99.5,50,49.56,49.56,0,0,1,50,99.5Zm0-95A45.5,45.5,0,1,0,95.5,50,45.55,45.55,0,0,0,50,4.5Z"/></g><g id="icon"><path class="cls-4" d="M50,85.41a1.86,1.86,0,0,1-.61-.1c-2-.64-19.73-6.61-26.06-19.09a19.93,19.93,0,0,1-1-15.86c4.11-12.34,3-17.48,1.95-19.45-.68-1.29-1.48-1.53-1.51-1.53a1.81,1.81,0,0,1-1.55-1.23,2,2,0,0,1,.49-2l7.6-8.61a2,2,0,0,1,2.56-.37c9.36,5.84,15.22,1.49,16.79,0a2,2,0,0,1,2.74,0c1.57,1.48,7.43,5.83,16.79,0a2,2,0,0,1,2.55.37l7.61,8.61a2,2,0,0,1,.45,2.06,1.85,1.85,0,0,1-1.59,1.23,3.15,3.15,0,0,0-1.43,1.52c-1,2-2.16,7.11,2,19.45S74.91,74.07,58.19,82.19a2,2,0,1,1-1.75-3.59c8.5-4.14,22.08-13.13,17.47-27-3.61-10.81-4.1-18.53-1.48-23A7.91,7.91,0,0,1,73.75,27l-5-5.61c-9.21,5-15.89,1.85-18.8-.21-2.91,2.06-9.59,5.24-18.8.21L26.25,27a7.91,7.91,0,0,1,1.32,1.67c2.62,4.44,2.13,12.16-1.48,23a16.11,16.11,0,0,0,.81,12.79c5.69,11.22,23,16.86,23.71,17.09A2,2,0,0,1,50,85.41Z"/><path class="cls-4" d="M66.87,46.41l-9,6.54,3.44,10.57A1.5,1.5,0,0,1,59,65.2l-9-6.54L41,65.2a1.5,1.5,0,0,1-2.31-1.68L42.13,53l-9-6.54a1.51,1.51,0,0,1-.54-1.68,1.49,1.49,0,0,1,1.42-1H45.14l3.43-10.57a1.5,1.5,0,0,1,2.86,0l3.43,10.57H66a1.49,1.49,0,0,1,1.42,1A1.51,1.51,0,0,1,66.87,46.41Z"/></g></svg>