<svg xmlns="http://www.w3.org/2000/svg" viewBox="0 0 100 100"><defs><style>.cls-1,.cls-3{opacity:0;}.cls-2{fill:#1e3f78;}.cls-3{fill:#65a4ef;}.cls-4{fill:#fff;}</style></defs><g id="circle-fill_export_layer_at_0_transparency_" data-name="circle-fill [export layer at 0% transparency]" class="cls-1"><circle class="cls-2" cx="50" cy="50" r="49.5"/></g><g id="circle-stroke_export_layer_at_0_transparency_" data-name="circle-stroke [export layer at 0% transparency]" class="cls-1"><path class="cls-3" d="M50,99.5A49.5,49.5,0,1,1,99.5,50,49.56,49.56,0,0,1,50,99.5Zm0-95A45.5,45.5,0,1,0,95.5,50,45.55,45.55,0,0,0,50,4.5Z"/></g><g id="icon"><path class="cls-4" d="M61.85,71.61a2,2,0,0,1-1.61-.81L53,60.93H31.13a2,2,0,0,1-1.28-3.53L33.92,54l-2.69-5.36A2,2,0,0,1,31.18,47a2,2,0,0,1,1.26-1.12l6.77-2.07L40.91,38l-3.4-9L31.23,39.85a2,2,0,0,1-1.34.95,2,2,0,0,1-1.61-.37l-4.67-3.58L18.35,67.61H51a2,2,0,0,1,0,4H16a2,2,0,0,1-2-2.34l6.22-36.36a2,2,0,0,1,3.18-1.25l5.5,4.21,7.25-12.48a2,2,0,0,1,3.6.29L44.89,37.2a2,2,0,0,1,0,1.27l-2.19,7.46a2,2,0,0,1-1.34,1.35L35.87,49l2.33,4.66a2,2,0,0,1-.5,2.43l-1,.87H54a2,2,0,0,1,1.61.81l7.89,10.68a2,2,0,0,1-1.61,3.19Z"/><path class="cls-4" d="M85.51,58.64a1.49,1.49,0,0,1-.56,1L80.67,63a1.51,1.51,0,0,1-.92.32,1.5,1.5,0,0,1-1.18-.57l-18.14-23-10.18,8a1.5,1.5,0,0,1-2.4-1.5c1-4.34,3.67-8.81,7.7-12.73l-2-2.53A1.47,1.47,0,0,1,53.24,30a1.5,1.5,0,0,1,.56-1l4.28-3.37a1.45,1.45,0,0,1,1.1-.31,1.42,1.42,0,0,1,1,.56l2,2.57c4.9-3.07,9.89-4.69,14.16-4.56a1.5,1.5,0,0,1,.88,2.68l-10.18,8,18.13,23A1.5,1.5,0,0,1,85.51,58.64Z"/></g></svg>