<svg xmlns="http://www.w3.org/2000/svg" viewBox="0 0 100 100"><defs><style>.cls-1,.cls-3{opacity:0;}.cls-2{fill:#1e3f78;}.cls-3{fill:#65a4ef;}.cls-4{fill:#fff;}</style></defs><g id="circle-fill_export_layer_at_0_transparency_" data-name="circle-fill [export layer at 0% transparency]" class="cls-1"><circle class="cls-2" cx="50" cy="50" r="49.5"/></g><g id="circle-stroke_export_layer_at_0_transparency_" data-name="circle-stroke [export layer at 0% transparency]" class="cls-1"><path class="cls-3" d="M50,99.5A49.5,49.5,0,1,1,99.5,50,49.56,49.56,0,0,1,50,99.5Zm0-95A45.5,45.5,0,1,0,95.5,50,45.55,45.55,0,0,0,50,4.5Z"/></g><g id="icon"><path class="cls-4" d="M77.31,24.57H22.69a2,2,0,0,0-2,2V77.41a2,2,0,0,0,4,0V28.57H75.31V77.41a2,2,0,0,0,4,0V26.57A2,2,0,0,0,77.31,24.57Z"/><rect class="cls-4" x="28.3" y="32.67" width="6.91" height="11.83" rx="1"/><rect class="cls-4" x="40.46" y="32.67" width="6.91" height="11.83" rx="1"/><rect class="cls-4" x="28.3" y="49.13" width="6.91" height="11.83" rx="1"/><rect class="cls-4" x="40.46" y="49.13" width="6.91" height="11.83" rx="1"/><rect class="cls-4" x="52.63" y="32.69" width="6.91" height="11.83" rx="1"/><rect class="cls-4" x="64.79" y="32.69" width="6.91" height="11.83" rx="1"/><rect class="cls-4" x="52.63" y="49.15" width="6.91" height="11.83" rx="1"/><rect class="cls-4" x="64.79" y="49.15" width="6.91" height="11.83" rx="1"/><rect class="cls-4" x="28.3" y="65.54" width="6.91" height="11.83" rx="1"/><rect class="cls-4" x="40.46" y="65.54" width="6.91" height="11.83" rx="1"/><rect class="cls-4" x="52.63" y="65.56" width="6.91" height="11.83" rx="1"/><rect class="cls-4" x="64.79" y="65.56" width="6.91" height="11.83" rx="1"/></g></svg>