<svg xmlns="http://www.w3.org/2000/svg" viewBox="0 0 100 100"><defs><style>.cls-1,.cls-3{opacity:0;}.cls-2{fill:#1e3f78;}.cls-3{fill:#65a4ef;}.cls-4{fill:#fff;}</style></defs><g id="circle-fill_export_layer_at_0_transparency_" data-name="circle-fill [export layer at 0% transparency]" class="cls-1"><circle class="cls-2" cx="50" cy="50" r="49.5"/></g><g id="circle-stroke_export_layer_at_0_transparency_" data-name="circle-stroke [export layer at 0% transparency]" class="cls-1"><path class="cls-3" d="M50,99.5A49.5,49.5,0,1,1,99.5,50,49.56,49.56,0,0,1,50,99.5Zm0-95A45.5,45.5,0,1,0,95.5,50,45.55,45.55,0,0,0,50,4.5Z"/></g><g id="icon"><rect class="cls-4" x="35" y="28.83" width="30" height="7.9" rx="1.5"/><path class="cls-4" d="M73.29,81.18,60.42,40.67a.15.15,0,0,0,0-.07,1.19,1.19,0,0,0-.08-.2l-.09-.17-.11-.16L60,39.91l0-.06s-.06,0-.08-.07l-.16-.13-.17-.1-.16-.09-.19-.07-.18,0-.19,0-.19,0h-.19l-.19,0-.21.05-.1,0-.07,0-.2.08-.16.09-.16.11-.17.14-.06,0L50,47.09l-7.32-7.24-.06,0-.17-.14-.15-.11-.17-.08-.2-.09-.06,0-.11,0-.2,0-.2,0h-.18l-.22,0-.16,0a.83.83,0,0,0-.21.06l-.15.06-.19.1-.15.1-.17.14s-.06,0-.08.07a.1.1,0,0,0,0,.05,1.15,1.15,0,0,0-.14.17l-.11.15-.09.17a1.67,1.67,0,0,0-.08.2l0,.07L26.71,81.19a2,2,0,0,0,2.5,2.51L50,77.34l20.8,6.36a2,2,0,0,0,2.5-2.52ZM42.18,45l4.57,4.51-7.33,4.35Zm15.43,0,2.77,8.72-7.17-4.25ZM48,59.22,42.5,56.7,48,53.44Zm4-5.78,5.5,3.26L52,59.22ZM37.83,59l7,3.23-9.14,3.54ZM48,65.26V72.4L38.43,69Zm4-.08,9.4,3.39L52,72.3Zm3.29-3.06L62.05,59l2,6.26ZM33.89,71.59l9.76,3.51-12,3.67ZM56,75l9.85-3.91,2.44,7.67Z"/><path class="cls-4" d="M56.56,26.29A2,2,0,0,1,54.68,25l-3.21-8.77h-2.3L46,25A2,2,0,0,1,42.2,23.6l3.7-10.08a2,2,0,0,1,1.88-1.31h5.08a2,2,0,0,1,1.88,1.31l3.7,10.08a2,2,0,0,1-1.19,2.56A1.87,1.87,0,0,1,56.56,26.29Z"/></g></svg>