<svg xmlns="http://www.w3.org/2000/svg" viewBox="0 0 100 100"><defs><style>.cls-1,.cls-3{opacity:0;}.cls-2{fill:#1e3f78;}.cls-3{fill:#65a4ef;}.cls-4{fill:#fff;}</style></defs><g id="circle-fill_export_layer_at_0_transparency_" data-name="circle-fill [export layer at 0% transparency]" class="cls-1"><circle class="cls-2" cx="50" cy="50" r="49.5"/></g><g id="circle-stroke_export_layer_at_0_transparency_" data-name="circle-stroke [export layer at 0% transparency]" class="cls-1"><path class="cls-3" d="M50,99.5A49.5,49.5,0,1,1,99.5,50,49.56,49.56,0,0,1,50,99.5Zm0-95A45.5,45.5,0,1,0,95.5,50,45.55,45.55,0,0,0,50,4.5Z"/></g><g id="icon"><path class="cls-4" d="M28.15,62.63h19.6v6.71a2,2,0,0,0,4,0V60.63a2,2,0,0,0-2-2H31.57L44.18,36.3a2,2,0,0,0-1.74-3H38.9L49.78,17.23,61.51,34H58.2a2,2,0,0,0-1.75,3l12,21.7H57.3a2,2,0,0,0,0,4H71.85a2,2,0,0,0,1.72-1,2,2,0,0,0,0-2L61.6,38h3.75A2,2,0,0,0,67,34.82L51.39,12.56a2,2,0,0,0-1.65-.85,2,2,0,0,0-1.64.88L33.47,34.19a2,2,0,0,0-.11,2.06,2,2,0,0,0,1.77,1.07H39L26.41,59.65a2,2,0,0,0,0,2A2,2,0,0,0,28.15,62.63Z"/><path class="cls-4" d="M77.47,76.22A16.63,16.63,0,0,1,66.09,70l0,0a1.85,1.85,0,0,0-.14-.14l-.15-.14v0l-.13-.08a1.22,1.22,0,0,0-.19-.12.77.77,0,0,0-.19-.08l-.16-.07-.23,0-.15,0h-.39a1.38,1.38,0,0,0-.2,0l-.18,0-.19.08-.17.07a1.13,1.13,0,0,0-.2.13l-.12.07h0l-.15.15A1.85,1.85,0,0,0,63,70v0A16.55,16.55,0,0,1,37,70v0a1,1,0,0,0-.15-.14.93.93,0,0,0-.14-.14v0l-.14-.08a.94.94,0,0,0-.18-.12,1.21,1.21,0,0,0-.2-.09l-.16-.06-.22,0-.15,0h-.39a1.38,1.38,0,0,0-.2,0l-.18,0-.19.08-.17.07a2.12,2.12,0,0,0-.2.12l-.12.08h0l-.15.15a1.85,1.85,0,0,0-.14.14l0,0a16.63,16.63,0,0,1-11.38,6.19,2,2,0,0,0,.19,4h.19a20.63,20.63,0,0,0,12.56-5.94,20.52,20.52,0,0,0,29.06,0A20.63,20.63,0,0,0,77.09,80.2h.19a2,2,0,0,0,.19-4Z"/></g></svg>