<svg xmlns="http://www.w3.org/2000/svg" viewBox="0 0 100 100"><defs><style>.cls-1,.cls-3{opacity:0;}.cls-2{fill:#1e3f78;}.cls-3{fill:#65a4ef;}.cls-4{fill:#fff;}</style></defs><g id="circle-fill_export_layer_at_0_transparency_" data-name="circle-fill [export layer at 0% transparency]" class="cls-1"><circle class="cls-2" cx="50" cy="50" r="49.5"/></g><g id="circle-stroke_export_layer_at_0_transparency_" data-name="circle-stroke [export layer at 0% transparency]" class="cls-1"><path class="cls-3" d="M50,99.5A49.5,49.5,0,1,1,99.5,50,49.56,49.56,0,0,1,50,99.5Zm0-95A45.5,45.5,0,1,0,95.5,50,45.55,45.55,0,0,0,50,4.5Z"/></g><g id="icon"><path class="cls-4" d="M50.08,86.42A2,2,0,0,1,49,86.09c-11.9-7.8-26.55-21.32-28.79-41.43a43.78,43.78,0,0,1,2.61-21.12.93.93,0,0,0,.05-.1,4.93,4.93,0,0,1,3.43-2.57l.11,0L49.74,17.6a2.53,2.53,0,0,1,.55,0l23.32,3.25.12,0a4.93,4.93,0,0,1,3.43,2.57l0,.1c.14.32,13.85,32.12-20.78,58.72A2,2,0,0,1,54,79.09c31.61-24.28,20.4-52,19.58-53.85A.94.94,0,0,0,73,24.8L50,21.6,27,24.8a1,1,0,0,0-.6.44c-.86,2-13.26,32.59,24.75,57.5a2,2,0,0,1-1.1,3.68Z"/><path class="cls-4" d="M46.08,65.94a2,2,0,0,1-1.61-.81L34.55,51.7a2,2,0,0,1,3.22-2.38l8.11,11L63.82,29.66a2,2,0,1,1,3.45,2L47.8,65a2,2,0,0,1-1.61,1Z"/></g></svg>