<svg xmlns="http://www.w3.org/2000/svg" viewBox="0 0 100 100"><defs><style>.cls-1,.cls-3{opacity:0;}.cls-2{fill:#1e3f78;}.cls-3{fill:#65a4ef;}.cls-4{fill:#fff;}</style></defs><g id="circle-fill_export_layer_at_0_transparency_" data-name="circle-fill [export layer at 0% transparency]" class="cls-1"><circle class="cls-2" cx="50" cy="50" r="49.5"/></g><g id="circle-stroke_export_layer_at_0_transparency_" data-name="circle-stroke [export layer at 0% transparency]" class="cls-1"><path class="cls-3" d="M50,99.5A49.5,49.5,0,1,1,99.5,50,49.56,49.56,0,0,1,50,99.5Zm0-95A45.5,45.5,0,1,0,95.5,50,45.55,45.55,0,0,0,50,4.5Z"/></g><g id="icon"><path class="cls-4" d="M17.66,41.29a2,2,0,0,1-1.15-3.64l32.79-23a2,2,0,0,1,2.32,0L83.51,37.66a2,2,0,0,1-2.33,3.25L50.43,18.78,18.8,40.92A2,2,0,0,1,17.66,41.29Z"/><path class="cls-4" d="M77.07,73.67h-18a2,2,0,0,1-2-2.33,8,8,0,0,0,.1-1V52A7.23,7.23,0,0,0,50,44.81h0A7.2,7.2,0,0,0,42.74,52V70.43a6.34,6.34,0,0,0,.1.9,2,2,0,0,1-2,2.34h-18a2,2,0,0,1-2-2V44.37a2,2,0,0,1,4,0v25.3H38.74V52A11.22,11.22,0,0,1,50,40.81h0A11.24,11.24,0,0,1,61.18,52V69.67H75.07V44.37a2,2,0,0,1,4,0v27.3A2,2,0,0,1,77.07,73.67Z"/></g></svg>