<svg xmlns="http://www.w3.org/2000/svg" viewBox="0 0 100 100"><defs><style>.cls-1,.cls-3{opacity:0;}.cls-2{fill:#1e3f78;}.cls-3{fill:#65a4ef;}.cls-4{fill:#fff;}</style></defs><g id="circle-fill_export_layer_at_0_transparency_" data-name="circle-fill [export layer at 0% transparency]" class="cls-1"><circle class="cls-2" cx="50" cy="50" r="49.5"/></g><g id="circle-stroke_export_layer_at_0_transparency_" data-name="circle-stroke [export layer at 0% transparency]" class="cls-1"><path class="cls-3" d="M50,99.5A49.5,49.5,0,1,1,99.5,50,49.56,49.56,0,0,1,50,99.5Zm0-95A45.5,45.5,0,1,0,95.5,50,45.55,45.55,0,0,0,50,4.5Z"/></g><g id="icon"><path class="cls-4" d="M51.53,58.47H25.68a9.17,9.17,0,0,1-9.16-9.17V41.44a9.18,9.18,0,0,1,9.16-9.17H51.53a9.18,9.18,0,0,1,9.16,9.17V49.3A9.17,9.17,0,0,1,51.53,58.47ZM25.68,37.27a4.17,4.17,0,0,0-4.16,4.17V49.3a4.17,4.17,0,0,0,4.16,4.17H51.53a4.17,4.17,0,0,0,4.16-4.17V41.44a4.17,4.17,0,0,0-4.16-4.17Z"/><path class="cls-4" d="M38.6,29.06a2.49,2.49,0,0,1-2.5-2.5V16.75a2.5,2.5,0,0,1,5,0v9.81A2.49,2.49,0,0,1,38.6,29.06Z"/><path class="cls-4" d="M38.57,89.75h0a2.5,2.5,0,0,1-2.49-2.51l.07-22.44a2.51,2.51,0,0,1,2.5-2.49h0a2.49,2.49,0,0,1,2.49,2.5l-.07,22.44A2.51,2.51,0,0,1,38.57,89.75Z"/><path class="cls-4" d="M65.75,55.1A2.46,2.46,0,0,1,64,54.36a2.49,2.49,0,0,1,0-3.53,7.75,7.75,0,0,0,0-10.92,2.5,2.5,0,1,1,3.53-3.53,12.72,12.72,0,0,1,0,18A2.5,2.5,0,0,1,65.75,55.1Z"/><path class="cls-4" d="M71.65,60.08a2.5,2.5,0,0,1-1.77-4.26,14.77,14.77,0,0,0,0-20.9,2.5,2.5,0,0,1,3.54-3.53,19.77,19.77,0,0,1,0,28A2.49,2.49,0,0,1,71.65,60.08Z"/><path class="cls-4" d="M77.76,65.3A2.46,2.46,0,0,1,76,64.56,2.49,2.49,0,0,1,76,61a22.16,22.16,0,0,0,0-31.32,2.5,2.5,0,0,1,3.53-3.53,27.14,27.14,0,0,1,0,38.38A2.5,2.5,0,0,1,77.76,65.3Z"/></g></svg>