<svg xmlns="http://www.w3.org/2000/svg" viewBox="0 0 100 100"><defs><style>.cls-1,.cls-3{opacity:0;}.cls-2{fill:#1e3f78;}.cls-3{fill:#65a4ef;}.cls-4{fill:#fff;}</style></defs><g id="circle-fill_export_layer_at_0_transparency_" data-name="circle-fill [export layer at 0% transparency]" class="cls-1"><circle class="cls-2" cx="50" cy="50" r="49.5"/></g><g id="circle-stroke_export_layer_at_0_transparency_" data-name="circle-stroke [export layer at 0% transparency]" class="cls-1"><path class="cls-3" d="M50,99.5A49.5,49.5,0,1,1,99.5,50,49.56,49.56,0,0,1,50,99.5Zm0-95A45.5,45.5,0,1,0,95.5,50,45.55,45.55,0,0,0,50,4.5Z"/></g><g id="icon"><path class="cls-4" d="M56,14.31H44A7.73,7.73,0,0,0,36.27,22V69.22A7.72,7.72,0,0,0,44,76.94h4l0,10.74a2,2,0,0,0,2,2h0a2,2,0,0,0,2-2l0-10.75h4a7.72,7.72,0,0,0,7.72-7.72V22A7.73,7.73,0,0,0,56,14.31Zm3.72,54.91A3.72,3.72,0,0,1,56,72.94H44a3.73,3.73,0,0,1-3.72-3.72V22A3.73,3.73,0,0,1,44,18.31H56A3.72,3.72,0,0,1,59.76,22Z"/><path class="cls-4" d="M23.89,36.41a2,2,0,0,0,0,2.83,9.11,9.11,0,0,1,0,12.86,2,2,0,1,0,2.82,2.83,13.1,13.1,0,0,0,0-18.52A2,2,0,0,0,23.89,36.41Z"/><path class="cls-4" d="M14.55,35.29a2,2,0,0,0,0,2.82,11.06,11.06,0,0,1,0,15.62,2,2,0,0,0,2.82,2.83,15,15,0,0,0,0-21.27A2,2,0,0,0,14.55,35.29Z"/><path class="cls-4" d="M76.11,36.41a2,2,0,0,0-2.82,0,13.1,13.1,0,0,0,0,18.52,2,2,0,1,0,2.82-2.83,9.11,9.11,0,0,1,0-12.86A2,2,0,0,0,76.11,36.41Z"/><path class="cls-4" d="M82.22,45.92a11,11,0,0,1,3.23-7.81,2,2,0,0,0-2.82-2.82,15,15,0,0,0,0,21.27,2,2,0,0,0,2.82-2.83A11,11,0,0,1,82.22,45.92Z"/></g></svg>