<svg xmlns="http://www.w3.org/2000/svg" viewBox="0 0 100 100"><defs><style>.cls-1,.cls-3{opacity:0;}.cls-2{fill:#1e3f78;}.cls-3{fill:#65a4ef;}.cls-4{fill:#fff;}</style></defs><g id="circle-fill_export_layer_at_0_transparency_" data-name="circle-fill [export layer at 0% transparency]" class="cls-1"><circle class="cls-2" cx="50" cy="50" r="49.5"/></g><g id="circle-stroke_export_layer_at_0_transparency_" data-name="circle-stroke [export layer at 0% transparency]" class="cls-1"><path class="cls-3" d="M50,99.5A49.5,49.5,0,1,1,99.5,50,49.56,49.56,0,0,1,50,99.5Zm0-95A45.5,45.5,0,1,0,95.5,50,45.55,45.55,0,0,0,50,4.5Z"/></g><g id="icon"><path class="cls-4" d="M33.72,51.36A2,2,0,0,0,36,49.65a14.72,14.72,0,0,1,29.2.22,2,2,0,0,0,2,1.76l.24,0a2,2,0,0,0,1.75-2.22A18.71,18.71,0,0,0,52.72,33.08V30.63H70.28a2,2,0,0,0,1.65-3.13L69,23.26,72,18.85A2,2,0,0,0,72,16.8a2,2,0,0,0-1.76-1.06H52.68a2,2,0,0,0-4,.4V33A18.78,18.78,0,0,0,32,49.1,2,2,0,0,0,33.72,51.36ZM65,24.41l1.53,2.22H52.72V19.74H66.55l-1.62,2.43A2,2,0,0,0,65,24.41Z"/><rect class="cls-4" x="31.06" y="62.53" width="6.71" height="11.43" rx="1"/><rect class="cls-4" x="41.45" y="62.53" width="6.71" height="11.43" rx="1"/><rect class="cls-4" x="51.84" y="62.53" width="6.71" height="11.43" rx="1"/><rect class="cls-4" x="62.22" y="62.53" width="6.71" height="11.43" rx="1"/><path class="cls-4" d="M75.35,53.85H24.65a2,2,0,0,0-2,2v22a2,2,0,0,0,4,0v-20h46.7v20a2,2,0,0,0,4,0v-22A2,2,0,0,0,75.35,53.85Z"/></g></svg>