<svg xmlns="http://www.w3.org/2000/svg" viewBox="0 0 100 100"><defs><style>.cls-1,.cls-3{opacity:0;}.cls-2{fill:#1e3f78;}.cls-3{fill:#65a4ef;}.cls-4{fill:#fff;}</style></defs><g id="circle-fill_export_layer_at_0_transparency_" data-name="circle-fill [export layer at 0% transparency]" class="cls-1"><circle class="cls-2" cx="50" cy="50" r="49.5"/></g><g id="circle-stroke_export_layer_at_0_transparency_" data-name="circle-stroke [export layer at 0% transparency]" class="cls-1"><path class="cls-3" d="M50,99.5A49.5,49.5,0,1,1,99.5,50,49.56,49.56,0,0,1,50,99.5Zm0-95A45.5,45.5,0,1,0,95.5,50,45.55,45.55,0,0,0,50,4.5Z"/></g><g id="icon"><path class="cls-4" d="M50,69.46A4.44,4.44,0,1,0,54.4,73.9,4.45,4.45,0,0,0,50,69.46Z"/><path class="cls-4" d="M65.38,11.84l-30.61-.05h-.14a7.8,7.8,0,0,0-7.77,7.67l-.09,59a7.77,7.77,0,0,0,7.74,7.66h.11l30.61,0h.14a7.8,7.8,0,0,0,7.77-7.67l.09-59v0A7.8,7.8,0,0,0,65.38,11.84ZM69.14,78.5a3.8,3.8,0,0,1-3.81,3.71h-.07l-30.66,0h-.06a3.78,3.78,0,0,1-3.77-3.69l.09-59a3.82,3.82,0,0,1,3.88-3.71l30.66.05a3.78,3.78,0,0,1,3.83,3.71Z"/><path class="cls-4" d="M62.75,23.91a2,2,0,0,0,0-4L36.4,19.86h0a2,2,0,0,0-1.41.58,2,2,0,0,0-.59,1.41l-.07,42.32a2,2,0,0,0,2,2h0a2,2,0,0,0,2-2l.07-40.32,24.35.05Z"/><path class="cls-4" d="M62.89,28.2h0a2,2,0,0,0-2,2l-.05,32L44,62.19h0a2,2,0,0,0,0,4l18.86,0h0a2,2,0,0,0,1.41-.58,2,2,0,0,0,.59-1.41l0-34A2,2,0,0,0,62.89,28.2Z"/></g></svg>