<svg xmlns="http://www.w3.org/2000/svg" viewBox="0 0 100 100"><defs><style>.cls-1,.cls-3{opacity:0;}.cls-2{fill:#1e3f78;}.cls-3{fill:#65a4ef;}.cls-4{fill:#fff;}</style></defs><g id="circle-fill_export_layer_at_0_transparency_" data-name="circle-fill [export layer at 0% transparency]" class="cls-1"><circle class="cls-2" cx="50" cy="50" r="49.5"/></g><g id="circle-stroke_export_layer_at_0_transparency_" data-name="circle-stroke [export layer at 0% transparency]" class="cls-1"><path class="cls-3" d="M50,99.5A49.5,49.5,0,1,1,99.5,50,49.56,49.56,0,0,1,50,99.5Zm0-95A45.5,45.5,0,1,0,95.5,50,45.55,45.55,0,0,0,50,4.5Z"/></g><g id="icon"><path class="cls-4" d="M47.67,26.25H19.39a2,2,0,0,0-2,2v45a2,2,0,0,0,4,0v-43H45.67v43a2,2,0,0,0,4,0v-45A2,2,0,0,0,47.67,26.25Z"/><rect class="cls-4" x="25.77" y="33.47" width="6.34" height="10.69" rx="1"/><rect class="cls-4" x="35.68" y="33.47" width="6.34" height="10.69" rx="1"/><rect class="cls-4" x="25.77" y="48.02" width="6.34" height="10.69" rx="1"/><rect class="cls-4" x="35.68" y="48.02" width="6.34" height="10.69" rx="1"/><rect class="cls-4" x="25.77" y="62.48" width="6.34" height="10.69" rx="1"/><rect class="cls-4" x="35.68" y="62.48" width="6.34" height="10.69" rx="1"/><path class="cls-4" d="M80.61,40.26H54.85a2,2,0,0,0-2,2V73.21a2,2,0,0,0,4,0V44.26H78.61V73.21a2,2,0,0,0,4,0V42.26A2,2,0,0,0,80.61,40.26Z"/><rect class="cls-4" x="60.21" y="47.53" width="15.03" height="6.56" rx="1"/><rect class="cls-4" x="60.21" y="56.97" width="15.03" height="6.56" rx="1"/><rect class="cls-4" x="60.21" y="66.75" width="15.03" height="6.56" rx="1"/><path class="cls-4" d="M37.44,22.07A17.06,17.06,0,0,1,66.85,33.84a2,2,0,0,0,4,0A21.06,21.06,0,0,0,34.54,19.31a2,2,0,1,0,2.9,2.76Z"/></g></svg>