<svg xmlns="http://www.w3.org/2000/svg" viewBox="0 0 100 100"><defs><style>.cls-1,.cls-3{opacity:0;}.cls-2{fill:#1e3f78;}.cls-3{fill:#65a4ef;}.cls-4{fill:#fff;}</style></defs><g id="circle-fill_export_layer_at_0_transparency_" data-name="circle-fill [export layer at 0% transparency]" class="cls-1"><circle class="cls-2" cx="50" cy="50" r="49.5"/></g><g id="circle-stroke_export_layer_at_0_transparency_" data-name="circle-stroke [export layer at 0% transparency]" class="cls-1"><path class="cls-3" d="M50,99.5A49.5,49.5,0,1,1,99.5,50,49.56,49.56,0,0,1,50,99.5Zm0-95A45.5,45.5,0,1,0,95.5,50,45.55,45.55,0,0,0,50,4.5Z"/></g><g id="icon"><path class="cls-4" d="M58.6,46.34a2,2,0,0,0-2-1.58H52.07V40.42h2.5a5.11,5.11,0,0,0,5.07-5.14l0-7.64a5.1,5.1,0,0,0-5.1-5.07h0l-8.59.05a5.12,5.12,0,0,0-5.08,5.14l.05,7.64a5.11,5.11,0,0,0,5.1,5.07h2.13v4.31H43.24a2,2,0,0,0-2,1.59l-8,38.52a2,2,0,1,0,3.91.81l1.69-8.07L49.1,83.29a2,2,0,0,0,1.94,0l10.21-5.66L63,85.7a2,2,0,0,0,1.95,1.57,2.15,2.15,0,0,0,.43,0,2,2,0,0,0,1.53-2.38ZM46,36.46h0a1.11,1.11,0,0,1-1.11-1.1l-.05-7.64a1.11,1.11,0,0,1,1.1-1.11h0l8.59-.05h0a1.1,1.1,0,0,1,1.1,1.1l0,7.64a1.11,1.11,0,0,1-1.1,1.11ZM55,48.76l2.07,9.6-5-3.58v-6Zm-7,15.56-3.5-2.14,3.5-2.49Zm-3.2-15.56h3.2v6l-5.24,3.73ZM46,70.25a2,2,0,0,0-2.76-.63l-3.13,2L41.48,65l6.59,4v9.13l-5.78-3.2L45.36,73A2,2,0,0,0,46,70.25Zm6.08,7.89V71.45L57.82,75Zm0-11.38V59.69l3.65,2.6-1.08.77A2,2,0,0,0,57,66.32l1.61-1.14L60,71.58Z"/><path class="cls-4" d="M62,38.23a2,2,0,0,0,2.83,0,9.51,9.51,0,0,0,0-13.43A2,2,0,0,0,62,27.62a5.52,5.52,0,0,1,0,7.78A2,2,0,0,0,62,38.23Z"/><path class="cls-4" d="M69.27,21.13A2,2,0,1,0,66.44,24a10.7,10.7,0,0,1,0,15.1,2,2,0,1,0,2.83,2.83A14.7,14.7,0,0,0,69.27,21.13Z"/><path class="cls-4" d="M73.86,17.31A2,2,0,1,0,71,20.14a16.09,16.09,0,0,1,0,22.75,2,2,0,0,0,0,2.82,2,2,0,0,0,2.83,0,20.09,20.09,0,0,0,0-28.4Z"/><path class="cls-4" d="M35.15,38.23A2,2,0,0,0,38,35.4a5.52,5.52,0,0,1,0-7.78,2,2,0,0,0-2.83-2.82A9.51,9.51,0,0,0,35.15,38.23Z"/><path class="cls-4" d="M33.56,39.06a10.7,10.7,0,0,1,0-15.1,2,2,0,0,0-2.83-2.83,14.7,14.7,0,0,0,0,20.76,2,2,0,1,0,2.83-2.83Z"/><path class="cls-4" d="M24.26,31.51A16,16,0,0,1,29,20.14h0l-2.83-2.83a20.09,20.09,0,0,0,0,28.4,2,2,0,0,0,2.83,0,2,2,0,0,0,0-2.82A16,16,0,0,1,24.26,31.51Z"/></g></svg>