<svg xmlns="http://www.w3.org/2000/svg" viewBox="0 0 100 100"><defs><style>.cls-1,.cls-3{opacity:0;}.cls-2{fill:#1e3f78;}.cls-3{fill:#65a4ef;}.cls-4{fill:#fff;}</style></defs><g id="circle-fill_export_layer_at_0_transparency_" data-name="circle-fill [export layer at 0% transparency]" class="cls-1"><circle class="cls-2" cx="50" cy="50" r="49.5"/></g><g id="circle-stroke_export_layer_at_0_transparency_" data-name="circle-stroke [export layer at 0% transparency]" class="cls-1"><path class="cls-3" d="M50,99.5A49.5,49.5,0,1,1,99.5,50,49.56,49.56,0,0,1,50,99.5Zm0-95A45.5,45.5,0,1,0,95.5,50,45.55,45.55,0,0,0,50,4.5Z"/></g><g id="icon"><path class="cls-4" d="M21.45,62.58l.28-.08.1,0,.25-.13a.53.53,0,0,0,.1-.06,1,1,0,0,0,.2-.16l.1-.08a1.2,1.2,0,0,0,.17-.21l.07-.08a1.83,1.83,0,0,0,.13-.24l.06-.1A1.72,1.72,0,0,0,23,61.2,1.42,1.42,0,0,0,23,61c0-.06,0-.12,0-.18a1.8,1.8,0,0,0,0-.22v0c0-.07,0-.13,0-.19s0-.11,0-.17v0h0L19.17,39H83.23a2,2,0,0,0,0-4H16.77a2,2,0,0,0-2,2.36l3.87,21.25H12.33a2,2,0,0,0,0,4h8.85a1.9,1.9,0,0,0,.25,0Z"/><path class="cls-4" d="M28.48,31.16a2,2,0,0,0,2.78-.53l3.79-5.54h5.41l3.79,5.54a2,2,0,0,0,1.65.88A2.06,2.06,0,0,0,47,31.16a2,2,0,0,0,.52-2.78l-4-5.8,3.71-5.41h5.4l3.71,5.41-4,5.8A2,2,0,0,0,53,31.16a2.06,2.06,0,0,0,1.13.35,2,2,0,0,0,1.65-.88l3.79-5.54H65l3.79,5.54a2,2,0,1,0,3.31-2.25L67.66,22A2,2,0,0,0,66,21.09H60.08a2.09,2.09,0,0,0-.28-.63L55.41,14a2,2,0,0,0-1.65-.87H46.24a2,2,0,0,0-1.65.87L40.2,20.46a2.09,2.09,0,0,0-.28.63H34a2,2,0,0,0-1.65.87L28,28.38A2,2,0,0,0,28.48,31.16Z"/><path class="cls-4" d="M87.67,58.62h-7l2.87-12.27a2,2,0,1,0-3.89-.91L74.46,67.36H24a2,2,0,1,0,0,4h5a7.26,7.26,0,0,0,14.5,0H56.49a7.26,7.26,0,0,0,14.5,0H76A2,2,0,0,0,78,69.82l1.69-7.2h8a2,2,0,0,0,0-4Z"/></g></svg>