<svg xmlns="http://www.w3.org/2000/svg" viewBox="0 0 100 100"><defs><style>.cls-1,.cls-3{opacity:0;}.cls-2{fill:#1e3f78;}.cls-3{fill:#65a4ef;}.cls-4{fill:#fff;}</style></defs><g id="circle-fill_export_layer_at_0_transparency_" data-name="circle-fill [export layer at 0% transparency]" class="cls-1"><circle class="cls-2" cx="50" cy="50" r="49.5"/></g><g id="circle-stroke_export_layer_at_0_transparency_" data-name="circle-stroke [export layer at 0% transparency]" class="cls-1"><path class="cls-3" d="M50,99.5A49.5,49.5,0,1,1,99.5,50,49.56,49.56,0,0,1,50,99.5Zm0-95A45.5,45.5,0,1,0,95.5,50,45.55,45.55,0,0,0,50,4.5Z"/></g><g id="icon"><g id="outlined_stroke" data-name="outlined stroke"><path class="cls-4" d="M29.72,86.26a2,2,0,0,1-1.72-3l16-27.1a2,2,0,0,1,3.44,2l-8,13.45L60.21,51H34.62a2,2,0,0,1-1.37-3.46L68.92,14.27A2,2,0,0,1,72,16.75l-15.39,26a2,2,0,0,1-3.44-2L61.5,26.65,39.7,47H65a2,2,0,0,1,1.42,3.42L31.14,85.68A2,2,0,0,1,29.72,86.26Z"/></g></g></svg>