<?xml version="1.0" encoding="utf-8"?>
<!-- Generator: Adobe Illustrator 25.3.1, SVG Export Plug-In . SVG Version: 6.00 Build 0)  -->
<svg version="1.1" id="Layer_1" xmlns="http://www.w3.org/2000/svg" xmlns:xlink="http://www.w3.org/1999/xlink" x="0px" y="0px"
	 viewBox="0 0 693 621.1" style="enable-background:new 0 0 693 621.1;" xml:space="preserve">
<style type="text/css">
	.st0{clip-path:url(#SVGID_2_);}
	.st1{fill:#FFFFFF;}
</style>
<g id="Layer_1_1_">
	<g>
		<defs>
			<rect id="SVGID_1_" y="-1.8" width="693" height="625"/>
		</defs>
		<clipPath id="SVGID_2_">
			<use xlink:href="#SVGID_1_"  style="overflow:visible;"/>
		</clipPath>
		<g class="st0">
			<path class="st1" d="M593.9,20.3c27.6-10.2,56.3-17,85.6-20.1l-190.5-2c-78.3,54.7-137,141.2-155.9,243
				c-13.4,74.9-4.4,152.1,25.7,222c-4.5-6.8-9-14.6-13.4-22.5C264.1,294,290.2,115.4,398.3-0.8h-86.4
				c-95.4,134.6-111.5,319.3-25.7,474.2c1.1,2.3,3.4,4.5,4.5,6.8C177.1,340.3,161.4,151.4,235.1-0.8H163
				c-57.6,141-53,306.8,25.8,449.4c14.7,26.1,31.5,51,50.4,74.4c-42.5-38.3-78.3-84.5-106.3-134.1C66.6,268.3,50.4,128.2,82-0.8
				H13.8c-51.2,235,42.4,483.9,239,624l440.2-2c-125.9-3.8-236.9-83.7-280.4-201.9C353.3,259.3,433.9,80,593.9,20.3"/>
		</g>
	</g>
</g>
</svg>
