<svg id="Layer_1" data-name="Layer 1" xmlns="http://www.w3.org/2000/svg" viewBox="0 0 29 29"><circle cx="14.5" cy="14.5" r="14.5" style="fill:#d9027d"/><path d="M682.84,387.57a.63.63,0,0,1-.42-.17l-4.93-4.92a.59.59,0,0,1,.84-.84l4.51,4.5,4.49-4.51a.6.6,0,0,1,.84,0,.58.58,0,0,1,0,.84l-4.91,4.93A.61.61,0,0,1,682.84,387.57Z" transform="translate(-668.33 -370)" style="fill:#fff"/><path d="M682.83,383.23a.59.59,0,0,1-.59-.59v-5.27a.6.6,0,1,1,1.19,0v5.27A.59.59,0,0,1,682.83,383.23Z" transform="translate(-668.33 -370)" style="fill:#fff"/><path d="M670.57,390.37" transform="translate(-668.33 -370)" style="fill:none;stroke:#1e3f78;stroke-linecap:round;stroke-linejoin:round;stroke-width:1.18622226077373px"/><path d="M689.75,391H675.92a.59.59,0,1,1,0-1.18h13.83a.59.59,0,0,1,0,1.18Z" transform="translate(-668.33 -370)" style="fill:#fff"/></svg>