<svg width="100%" height="100%" viewBox="0 0 922 1037" version="1.1" xmlns="http://www.w3.org/2000/svg" xmlns:xlink="http://www.w3.org/1999/xlink" xml:space="preserve" xmlns:serif="http://www.serif.com/" style="fill-rule:evenodd;clip-rule:evenodd;stroke-linejoin:round;stroke-miterlimit:2;">
    <path d="M138.234,-138.234c76.294,-0 138.234,61.941 138.234,138.234c0,76.293 -61.94,138.234 -138.234,138.234c-76.293,0 -138.234,-61.941 -138.234,-138.234c0,-76.293 61.941,-138.234 138.234,-138.234Zm0,2c75.19,-0 136.234,61.044 136.234,136.234c0,75.19 -61.044,136.234 -136.234,136.234c-75.19,0 -136.234,-61.044 -136.234,-136.234c0,-75.19 61.044,-136.234 136.234,-136.234Z" style="fill:#fff;fill-opacity:0.08;" />
    <path d="M143.034,-133.434c76.294,-0 138.234,61.941 138.234,138.234c0,76.293 -61.94,138.234 -138.234,138.234c-76.293,0 -138.234,-61.941 -138.234,-138.234c-0,-76.293 61.941,-138.234 138.234,-138.234Zm0,2c75.19,-0 136.234,61.044 136.234,136.234c0,75.19 -61.044,136.234 -136.234,136.234c-75.19,0 -136.234,-61.044 -136.234,-136.234c-0,-75.19 61.044,-136.234 136.234,-136.234Z" style="fill:#fff;fill-opacity:0.08;" />
    <path d="M138.234,898.566c76.294,-0 138.234,61.941 138.234,138.234c0,76.293 -61.94,138.234 -138.234,138.234c-76.293,0 -138.234,-61.941 -138.234,-138.234c0,-76.293 61.941,-138.234 138.234,-138.234Zm0,2c75.19,-0 136.234,61.044 136.234,136.234c0,75.19 -61.044,136.234 -136.234,136.234c-75.19,0 -136.234,-61.044 -136.234,-136.234c0,-75.19 61.044,-136.234 136.234,-136.234Z" style="fill:#fff;fill-opacity:0.08;" />
    <path d="M143.034,903.366c76.294,-0 138.234,61.941 138.234,138.234c0,76.293 -61.94,138.234 -138.234,138.234c-76.293,0 -138.234,-61.941 -138.234,-138.234c-0,-76.293 61.941,-138.234 138.234,-138.234Zm0,2c75.19,-0 136.234,61.044 136.234,136.234c0,75.19 -61.044,136.234 -136.234,136.234c-75.19,0 -136.234,-61.044 -136.234,-136.234c-0,-75.19 61.044,-136.234 136.234,-136.234Z" style="fill:#fff;fill-opacity:0.08;" />
    <path d="M714.238,311.038c114.446,0 207.362,92.916 207.362,207.362c0,114.446 -92.916,207.362 -207.362,207.362c-114.446,-0 -207.362,-92.916 -207.362,-207.362c0,-114.446 92.916,-207.362 207.362,-207.362Zm0,2c113.342,0 205.362,92.02 205.362,205.362c-0,113.342 -92.02,205.362 -205.362,205.362c-113.342,-0 -205.362,-92.02 -205.362,-205.362c0,-113.342 92.02,-205.362 205.362,-205.362Z" style="fill:#fff;fill-opacity:0.08;" />
    <path d="M706.867,318.41c114.446,-0 207.361,92.916 207.361,207.362c0,114.446 -92.915,207.361 -207.361,207.361c-114.447,0 -207.362,-92.915 -207.362,-207.361c-0,-114.446 92.915,-207.362 207.362,-207.362Zm-0,2c113.342,-0 205.361,92.019 205.361,205.362c0,113.342 -92.019,205.361 -205.361,205.361c-113.343,0 -205.362,-92.019 -205.362,-205.361c-0,-113.343 92.019,-205.362 205.362,-205.362Z" style="fill:#fff;fill-opacity:0.08;" />
</svg>
