<svg xmlns="http://www.w3.org/2000/svg" width="32" height="23" viewBox="0 0 32 23">
  <g fill="#5B5D60">
    <polygon points="32 10 29 10 29 7 26 7 26 10 23 10 23 13 26 13 26 16 29 16 29 13 32 13"/>
    <path d="M11,10.00006 L11,13.70006 L17,13.70006 C16.8,15.30006 15.1,18.40006 10.9,18.40006 C7.2,18.40006 4.2,15.30006 4.2,11.60006 C4.2,7.90006 7.2,4.80006 10.9,4.80006 C13,4.80006 14.4,5.70006 15.2,6.50006 L18.1,3.70006 C16.2,1.90006 13.8,0.90006 10.8,0.90006 C4.8,0.70006 -3.55271368e-15,5.60006 -3.55271368e-15,11.60006 C-3.55271368e-15,17.60006 4.8,22.40006 10.8,22.40006 C18.3,22.40006 22.1,16.20006 21,10.00006 L11,10.00006 L11,10.00006 Z"/>
  </g>
</svg>
