<?xml version="1.0" encoding="utf-8"?>
<!-- Generator: Adobe Illustrator 26.0.1, SVG Export Plug-In . SVG Version: 6.00 Build 0)  -->
<svg version="1.1" id="Layer_1" xmlns="http://www.w3.org/2000/svg" xmlns:xlink="http://www.w3.org/1999/xlink" x="0px" y="0px"
	 viewBox="0 0 2351.6 976.5" style="enable-background:new 0 0 2351.6 976.5;" xml:space="preserve">
<style type="text/css">
	.st0{fill:#003A70;}
	.st1{opacity:0.15;fill:#FFFFFF;enable-background:new    ;}
</style>
<g id="Layer_2_00000101783273196340066740000013915984809739379096_">
	<g id="Layer_2-2">
		<rect class="st0" width="2351.6" height="43.6"/>
	</g>
	<g id="Layer_3">
		<path class="st1" d="M967.9,976.5h1383.7V43.9H1228.4c16.6-15.8,34.3-30.5,53-43.9h-161c-61.5,68.8-106.4,150.8-131.3,239.7
			c-38.9,137.4-28.4,280.9,28.6,409.8c-7.7-11.7-15.1-23.8-22-36.2c-78.9-140.9-98.1-304.1-54.2-459.5
			C956.7,99.6,979.4,47.9,1008.8,0H885.3c-19.8,39.9-35.8,81.5-47.9,124.4c-51.7,183.2-29,375.6,63.9,541.8c2.2,3.9,4.7,7.6,7,11.5
			c-26-31.8-49.2-65.9-69.3-101.7C736.8,393.4,722.6,185,782.4,0H669.7c-56.9,204.1-36.5,429.7,74.9,628.8
			c23.6,42.1,50.8,82,81.3,119.3C617.6,558.6,515.1,279.2,551.6,0H442.9C419.1,202.4,460,407,559.7,584.7
			C653.9,752.9,796,889.3,967.9,976.5z"/>
	</g>
</g>
</svg>
