<svg id="Group_122" data-name="Group 122" xmlns="http://www.w3.org/2000/svg" xmlns:xlink="http://www.w3.org/1999/xlink" width="806.02" height="179.631" viewBox="0 0 806.02 179.631">
  <defs>
    <linearGradient id="linear-gradient" x1="-0.367" y1="-0.901" x2="0.802" y2="0.702" gradientUnits="objectBoundingBox">
      <stop offset="0" stop-color="#fff"/>
      <stop offset="1" stop-color="#008a96"/>
    </linearGradient>
    <clipPath id="clip-path">
      <path id="Path_1" data-name="Path 1" d="M275.5,0A498.413,498.413,0,0,0,188.34,179.631h66.875A431.934,431.934,0,0,1,360.718,0Z" transform="translate(-188.34)" fill="url(#linear-gradient)"/>
    </clipPath>
    <clipPath id="clip-path-2">
      <path id="Path_2" data-name="Path 2" d="M524.3,0A421.411,421.411,0,0,0,366.529,179.631H439.1A358.337,358.337,0,0,1,576.071,44.257,362.081,362.081,0,0,1,716.612,0Z" transform="translate(-366.529)" fill="url(#linear-gradient)"/>
    </clipPath>
    <clipPath id="clip-path-3">
      <path id="Path_3" data-name="Path 3" d="M47.316,0A585.227,585.227,0,0,0,0,179.631H64.776A519.618,519.618,0,0,1,118.636,0Z" fill="url(#linear-gradient)"/>
    </clipPath>
    <clipPath id="clip-path-4">
      <path id="Path_4" data-name="Path 4" d="M661.009,114.373A362.249,362.249,0,0,0,558.645,199.4h91.421a301.387,301.387,0,0,1,42.456-28.72,296.872,296.872,0,0,1,275.5-7.906,514.981,514.981,0,0,0-63.436-88.336,360.446,360.446,0,0,0-243.579,39.94" transform="translate(-558.645 -68.153)" fill="url(#linear-gradient)"/>
    </clipPath>
    <clipPath id="clip-path-5">
      <path id="Path_5" data-name="Path 5" d="M957.238,0q3.5.344,7,.736c-.3-.248-.6-.489-.9-.736Z" transform="translate(-957.238)" fill="url(#linear-gradient)"/>
    </clipPath>
  </defs>
  <g id="Group_11" data-name="Group 11" opacity="0.472">
    <g id="Group_2" data-name="Group 2" transform="translate(133.722)">
      <g id="Group_1" data-name="Group 1" clip-path="url(#clip-path)">
        <rect id="Rectangle_2" data-name="Rectangle 2" width="180.393" height="173.172" transform="translate(-0.796 179.628) rotate(-89.746)" fill="url(#linear-gradient)"/>
      </g>
    </g>
    <g id="Group_4" data-name="Group 4" transform="translate(260.238)">
      <g id="Group_3" data-name="Group 3" clip-path="url(#clip-path-2)">
        <rect id="Rectangle_3" data-name="Rectangle 3" width="181.181" height="350.875" transform="translate(-0.796 179.628) rotate(-89.746)" fill="url(#linear-gradient)"/>
      </g>
    </g>
    <g id="Group_6" data-name="Group 6">
      <g id="Group_5" data-name="Group 5" clip-path="url(#clip-path-3)">
        <rect id="Rectangle_4" data-name="Rectangle 4" width="180.155" height="119.431" transform="translate(-0.796 179.628) rotate(-89.746)" fill="url(#linear-gradient)"/>
      </g>
    </g>
    <g id="Group_8" data-name="Group 8" transform="translate(396.641 48.389)">
      <g id="Group_7" data-name="Group 7" clip-path="url(#clip-path-4)">
        <rect id="Rectangle_5" data-name="Rectangle 5" width="133.055" height="409.957" transform="translate(-0.582 131.24) rotate(-89.746)" fill="url(#linear-gradient)"/>
      </g>
    </g>
    <g id="Group_10" data-name="Group 10" transform="translate(679.644)">
      <g id="Group_9" data-name="Group 9" clip-path="url(#clip-path-5)">
        <rect id="Rectangle_6" data-name="Rectangle 6" width="0.767" height="7" transform="matrix(0.004, -1, 1, 0.004, -0.003, 0.736)" fill="url(#linear-gradient)"/>
      </g>
    </g>
  </g>
</svg>
