<?xml version="1.0" encoding="utf-8"?>
<!-- Generator: Adobe Illustrator 26.0.0, SVG Export Plug-In . SVG Version: 6.00 Build 0)  -->
<svg version="1.1" id="Layer_1" xmlns:serif="http://www.serif.com/"
	 xmlns="http://www.w3.org/2000/svg" xmlns:xlink="http://www.w3.org/1999/xlink" x="0px" y="0px" viewBox="0 0 881.9 768"
	 style="enable-background:new 0 0 881.9 768;" xml:space="preserve">
<style type="text/css">
	.st0{fill:none;}
	.st1{clip-path:url(#SVGID_00000008843495603506733220000000871549880366496425_);}
	.st2{fill:url(#bg_00000131362157041048894940000002979189262390111365_);}
	.st3{fill:#003A70;}
</style>
<rect id="wave" x="-0.3" class="st0" width="882.3" height="767.9"/>
<g>
	<defs>
		<rect id="SVGID_1_" x="-0.3" width="882.3" height="768.1"/>
	</defs>
	<clipPath id="SVGID_00000131358737332523299270000015256307491991405486_">
		<use xlink:href="#SVGID_1_"  style="overflow:visible;"/>
	</clipPath>
	<g style="clip-path:url(#SVGID_00000131358737332523299270000015256307491991405486_);">
		
			<linearGradient id="bg_00000070100224935106380190000016788567671876899459_" gradientUnits="userSpaceOnUse" x1="-242.1401" y1="767.9999" x2="-241.1401" y2="767.9999" gradientTransform="matrix(653.1588 0 0 -511.1366 158216.1562 392936.9062)">
			<stop  offset="0" style="stop-color:#65A4EF"/>
			<stop  offset="1" style="stop-color:#003A70"/>
		</linearGradient>
		<path id="bg" style="fill:url(#bg_00000070100224935106380190000016788567671876899459_);" d="M674.3,768.1H-180V0h854.3
			c0,0-214.8,127.3-217.5,396.6C454.4,631,674.3,768.1,674.3,768.1z"/>
		<path id="wave1" serif:id="wave" class="st3" d="M1015.8,744C816.4,817.9,596,716.1,522.1,518C448.2,319.9,548.6,98.1,748,24.2
			c99-36.3,207.8-32.1,302.7,13.9c-23.7-40.5-50.2-79.5-82.3-114.4c-253.8-47.4-497.9,120-545.3,373.9
			c-16.7,92.1-5.6,188.3,32.1,274.8c-5.6-8.4-11.2-18.1-16.7-27.9c-125.5-224.6-46-507.8,178.5-633.3
			c69.7-39.1,146.4-58.6,225.9-58.6c18.1,0,34.9,1.4,53,2.8c-39.1-32.1-80.9-58.6-125.5-80.9c-68.3,9.8-135.3,30.7-195.3,65.6
			C311.5-13.5,216.6,319.9,364.5,585c1.4,2.8,4.2,5.6,5.6,8.4c-193.9-237.1-159-585.9,78.1-779.8c25.1-20.9,53-39.1,82.3-55.8
			c27.9-15.3,57.2-27.9,86.5-39.1c-46-9.8-93.4-15.3-142.3-15.3h-16.7C173.4-113.9,78.6,258.5,243.1,554.3
			c18.1,32.1,39.1,62.8,62.8,92.1c-53-47.4-97.6-104.6-132.5-166C45.1,248.8,67.4-38.6,229.2-247.8c-53,20.9-101.8,48.8-147.8,83.7
			c-178.5,372.5-20.9,817.5,350.1,996c100.4,48.8,212,73.9,323.6,73.9c37.7,0,75.3-2.8,111.6-8.4C923.8,852.8,974,801.2,1015.8,744
			L1015.8,744z"/>
	</g>
</g>
</svg>
