<svg xmlns="http://www.w3.org/2000/svg" width="1578.026" height="1817.612" viewBox="0 0 1578.026 1817.612">
  <path id="Path_88" data-name="Path 88" d="M2362.382,1696.5a579.915,579.915,0,0,1-709.321-261.018c-75.828-135.48-94.369-292.456-52.183-441.908,42.24-149.452,140.1-273.541,275.635-349.369a579.2,579.2,0,0,1,537.513-15.423,1004.79,1004.79,0,0,0-123.765-172.345,703.23,703.23,0,0,0-475.228,77.922c-164.875,92.221-283.965,243.124-335.286,424.982-45.251,160.038-33.106,327.119,33.317,477.217-8.973-13.65-17.572-27.73-25.634-42.188-91.842-164.068-114.252-354.15-63.144-535.146,51.108-181.053,169.6-331.313,333.729-423.1a692.132,692.132,0,0,1,423.1-84.91,998.621,998.621,0,0,0-189.65-123.279,833.271,833.271,0,0,0-294.929,98.291C1503.071,434.461,1363.345,611.59,1303.1,824.992s-33.8,437.395,74.433,630.915c2.579,4.567,5.481,8.867,8.113,13.437a837.245,837.245,0,0,1-80.77-118.392C1078.142,945.695,1223.351,431.5,1628.554,204.774a842.908,842.908,0,0,1,130.967-58.845,1001.416,1001.416,0,0,0-214.642-23.377c-8.383,0-16.658.43-24.988.643-429.55,273.217-576.529,839.536-324.916,1289.236a965.959,965.959,0,0,0,94.637,138.972,1002.476,1002.476,0,0,1-200.076-251.772c-202.173-361.3-156.492-795.147,81.095-1104.37A999.482,999.482,0,0,0,946.962,321.069c-152.676,320.4-153.374,707.44,32.73,1040.039,199.752,357.162,578.354,579.056,987.964,579.056a1118.725,1118.725,0,0,0,169.07-13A1005.788,1005.788,0,0,0,2362.382,1696.5" transform="translate(-836 -122.552)" fill="#fff" opacity=".2"/>
</svg>
